{"title":"Malini &amp; Co (2015) (Poonam Pandey) TELUGU CAM XviD-SSM","uid":12327370,"size":385699676,"categoryP":"video","categoryS":"movies","magnet":"?xt=urn:btih:e5ed680f685badc88dbd1e4aa21741113276e900&amp;dn=Malini+%26amp%3B+Co+%282015%29+%28Poonam+Pandey%29+TELUGU+CAM+XviD-SSM&amp;tr=udp%3A%2F%2Ftracker.openbittorrent.com%3A80&amp;tr=udp%3A%2F%2Fopen.demonii.com%3A1337&amp;tr=udp%3A%2F%2Ftracker.coppersurfer.tk%3A6969&amp;tr=udp%3A%2F%2Fexodus.desync.com%3A6969","seeders":0,"leechers":1,"uploader":"SS132203","files":2,"time":1441135096,"description":"Malini &amp; Co (2015) (Poonam Pandey) TELUGU CAM XviD-SSM\n &lt;a href=&quot;\nhttp://imgsparrow.co/image/875&quot; rel=&quot;nofollow&quot; target=&quot;_NEW&quot;&gt;\nhttp://imgsparrow.co/image/875&lt;/a&gt;\n &lt;a href=&quot;\nhttp://imgsparrow.co/image/8z1&quot; rel=&quot;nofollow&quot; target=&quot;_NEW&quot;&gt;\nhttp://imgsparrow.co/image/8z1&lt;/a&gt;\n\nInfo : - \n\nFormat                      : MPEG-4\nFormat profile              : Base Media\nCodec ID                    : isom\nFile size                   : 368 MiB\nDuration                    : 1h 28mn\nOverall bit rate mode       : Variable\nOverall bit rate            : 582 Kbps\nWriting application         : Lavf56.40.101\nCopyright                   : Malini &amp; Co Full Movie\n\nVideo\nID                          : 1\nFormat                      : AVC\nFormat/Info                 : Advanced Video Codec\nFormat profile              : Baseline@L3\nFormat settings, CABAC      : No\nFormat settings, ReFrames   : 2 frames\nCodec ID                    : avc1\nCodec ID/Info               : Advanced Video Coding\nDuration                    : 1h 28mn\nBit rate                    : 481 Kbps\nWidth                       : 640 pixels\nHeight                      : 360 pixels\nDisplay aspect ratio        : 16:9\nFrame rate mode             : Constant\nFrame rate                  : 25.000 fps\nColor space                 : YUV\nChroma subsampling          : 4:2:0\nBit depth                   : 8 bits\nScan type                   : Progressive\nBits/(Pixel*Frame)          : 0.083\nStream size                 : 304 MiB (83%)\nWriting library             : x264 core 146 r109 121396c\n\nAudio\nID                          : 2\nFormat                      : AAC\nFormat/Info                 : Advanced Audio Codec\nFormat profile              : LC\nCodec ID                    : 40\nDuration                    : 1h 28mn\nDuration_LastFrame          : 25ms\nBit rate mode               : Variable\nBit rate                    : 96.0 Kbps\nMaximum bit rate            : 2 500 Kbps\nChannel(s)                  : 2 channels\nChannel positions           : Front: L R\nSampling rate               : 44.1 KHz\nCompression mode            : Lossy\nStream size                 : 60.7 MiB (16%)\n\nScreens : - \n &lt;a href=&quot;\nhttp://imgsparrow.co/image/87Y&quot; rel=&quot;nofollow&quot; target=&quot;_NEW&quot;&gt;\nhttp://imgsparrow.co/image/87Y&lt;/a&gt; &lt;a href=&quot;\nhttp://imgsparrow.co/image/87c&quot; rel=&quot;nofollow&quot; target=&quot;_NEW&quot;&gt;\nhttp://imgsparrow.co/image/87c&lt;/a&gt; &lt;a href=&quot;\nhttp://imgsparrow.co/image/87d&quot; rel=&quot;nofollow&quot; target=&quot;_NEW&quot;&gt;\nhttp://imgsparrow.co/image/87d&lt;/a&gt; &lt;a href=&quot;\nhttp://imgsparrow.co/image/87o&quot; rel=&quot;nofollow&quot; target=&quot;_NEW&quot;&gt;\nhttp://imgsparrow.co/image/87o&lt;/a&gt; &lt;a href=&quot;\nhttp://imgsparrow.co/image/87M&quot; rel=&quot;nofollow&quot; target=&quot;_NEW&quot;&gt;\nhttp://imgsparrow.co/image/87M&lt;/a&gt; &lt;a href=&quot;\nhttp://imgsparrow.co/image/87m&quot; rel=&quot;nofollow&quot; target=&quot;_NEW&quot;&gt;\nhttp://imgsparrow.co/image/87m&lt;/a&gt;\n &lt;a href=&quot;\nhttp://imgsparrow.co/image/N2&quot; rel=&quot;nofollow&quot; target=&quot;_NEW&quot;&gt;\nhttp://imgsparrow.co/image/N2&lt;/a&gt;","torrent":{"xt":"urn:btih:e5ed680f685badc88dbd1e4aa21741113276e900","amp;dn":"Malini+%26amp%3B+Co+%282015%29+%28Poonam+Pandey%29+TELUGU+CAM+XviD-SSM","amp;tr":["udp%3A%2F%2Ftracker.openbittorrent.com%3A80","udp%3A%2F%2Fopen.demonii.com%3A1337","udp%3A%2F%2Ftracker.coppersurfer.tk%3A6969","udp%3A%2F%2Fexodus.desync.com%3A6969"],"infoHash":"e5ed680f685badc88dbd1e4aa21741113276e900","infoHashBuffer":{"type":"Buffer","data":[229,237,104,15,104,91,173,200,141,189,30,74,162,23,65,17,50,118,233,0]},"announce":[],"urlList":[]}}